<?xml version="1.0" encoding="UTF-8"?>
<!-- Generated by Pixelmator Pro 3.3.2 -->
<svg width="394" height="80" viewBox="0 0 394 80" xmlns="http://www.w3.org/2000/svg" xmlns:xlink="http://www.w3.org/1999/xlink">
    <path id="Path" fill="#000000" stroke="none" d="M 128 259 L 196.5 259 L 196.5 271.700012 L 169.299988 271.700012 L 169.299988 338.299988 L 155.700012 338.299988 L 155.700012 271.700012 L 128 271.700012 L 128 259 Z M 15 259 L 15 271.700012 L -40 271.700012 L -40 292.099976 L 4.300003 292.099976 L 4.300003 304.700012 L -40 304.700012 L -40 325.700012 L 15 325.700012 L 15 338.299988 L -53.5 338.299988 L 51 338 L 15.199997 259 Z M 49.300003 259 L 31.5 259 L 95.300003 338.399994 L 113.199997 338.399994 L 81.199997 298.700012 L 113.199997 259.099976 L 95.300003 259.099976 L 72 338 L 49.300003 259.099976 Z M 67.600006 315.700012 L 58.600006 304.700012 L 31.5 338.399994 L 49.300003 338.399994 L 67.600006 315.700012 Z"/>
    <g id="Group-copy">
        <text id="ICU" xml:space="preserve" x="165" y="72" font-family="Dela Gothic One" font-size="86.897243" fill="#ffffff">ICU</text>
        <text id="OPEN-SOURCE" xml:space="preserve"><tspan x="3" y="37" font-family="Archivo SemiExpanded" font-size="27.51746" fill="#ffffff" xml:space="preserve">OPEN</tspan><tspan x="3" y="67" font-family="Archivo SemiExpanded" font-size="27.51746" fill="#ffffff" xml:space="preserve">SOURCE</tspan></text>
    </g>
</svg>
