<?xml version="1.0" encoding="UTF-8"?>
<!-- Generated by Pixelmator Pro 3.3.2 -->
<svg width="283" height="64" viewBox="0 0 283 64" xmlns="http://www.w3.org/2000/svg" xmlns:xlink="http://www.w3.org/1999/xlink">
    <path id="Path" fill="#000000" stroke="none" d="M 141 119 C 130 119 122 126 122 137 C 122 148 131 155 142 155 C 149 155 155 152 158 148 L 151 143 C 149 146 145 147 142 147 C 137 147 133 144 132 140 L 160 140 L 160 137 C 160 126 152 119 141 119 Z M 132 134 C 133 130 136 127 141 127 C 146 127 149 130 150 134 L 132 134 Z M 249 119 C 238 119 230 126 230 137 C 230 148 239 155 250 155 C 256 155 262 152 266 148 L 258 143 C 256 146 253 147 250 147 C 245 147 241 144 239 140 L 267 140 L 268 137 C 268 126 260 119 249 119 Z M 239 134 C 241 130 244 127 249 127 C 254 127 257 130 258 134 L 239 134 Z M 200 137 C 200 143 204 147 210 147 C 214 147 217 145 219 142 L 227 147 C 224 152 218 155 210 155 C 199 155 191 148 191 137 C 191 126 199 119 210 119 C 218 119 224 122 227 127 L 219 132 C 217 129 214 127 210 127 C 204 127 200 131 200 137 Z M 283 108 L 283 154 L 274 154 L 274 108 L 283 108 Z M 37 103 L 74 167 L 0 167 L 37 103 Z M 129 108 L 102 156 L 74 108 L 84 108 L 103 139 L 119 108 L 129 108 Z M 188 120 L 188 130 L 185 129 C 179 129 175 133 175 139 L 175 154 L 166 154 L 166 120 L 175 120 L 175 129 C 175 124 181 120 188 120 Z"/>
    <text id="ICU" xml:space="preserve" x="121" y="53" font-family="Dela Gothic One" font-size="60" fill="#ffffff">ICU</text>
    <text id="OPEN-SOURCE" xml:space="preserve"><tspan x="9" y="28" font-family="Archivo SemiExpanded" font-size="19" fill="#ffffff" xml:space="preserve">OPEN</tspan><tspan x="9" y="49" font-family="Archivo SemiExpanded" font-size="19" fill="#ffffff" xml:space="preserve">SOURCE</tspan></text>
</svg>
